<mxfile host="app.diagrams.net" modified="2023-08-25T01:54:37.001Z" agent="Mozilla/5.0 (Windows NT 10.0; Win64; x64) AppleWebKit/537.36 (KHTML, like Gecko) Chrome/116.0.0.0 Safari/537.36" version="21.6.9" etag="DNIyU6G61xtTqtVj4tJ8" type="github">
  <diagram name="PÃ¡gina-1" id="4802Ye9KPuxCL4S9O64M">
    <mxGraphModel>
      <root>
        <mxCell id="0" />
        <mxCell id="1" parent="0" />
      </root>
    </mxGraphModel>
  </diagram>
</mxfile>
